<svg width="64" height="64" viewBox="0 0 64 64" fill="none" xmlns="http://www.w3.org/2000/svg">
  <rect width="64" height="64" rx="18" fill="#08101D"/>
  <rect x="6" y="6" width="52" height="52" rx="16" fill="url(#paint0_linear)"/>
  <path d="M25 20.5C25 18.567 26.567 17 28.5 17H35.5C37.433 17 39 18.567 39 20.5V22H41.5C44.5376 22 47 24.4624 47 27.5V36.5C47 39.5376 44.5376 42 41.5 42H39V43.5C39 45.433 37.433 47 35.5 47H28.5C26.567 47 25 45.433 25 43.5V42H22.5C19.4624 42 17 39.5376 17 36.5V27.5C17 24.4624 19.4624 22 22.5 22H25V20.5Z" fill="#08101D" fill-opacity="0.82"/>
  <path d="M30 25.5C30 24.1193 31.1193 23 32.5 23C33.8807 23 35 24.1193 35 25.5V39.5C35 40.8807 33.8807 42 32.5 42C31.1193 42 30 40.8807 30 39.5V25.5Z" fill="white"/>
  <path d="M39.9377 30.1448C41.2654 30.9113 41.2654 32.8281 39.9377 33.5946L31.6565 38.3773C30.3287 39.1438 28.669 38.1854 28.669 36.6525L28.669 27.087C28.669 25.554 30.3287 24.5956 31.6565 25.3621L39.9377 30.1448Z" fill="#55C2FF"/>
  <defs>
    <linearGradient id="paint0_linear" x1="10" y1="10" x2="55" y2="54" gradientUnits="userSpaceOnUse">
      <stop stop-color="#55C2FF"/>
      <stop offset="1" stop-color="#FF9352"/>
    </linearGradient>
  </defs>
</svg>
